<svg width="978" height="796" viewBox="0 0 978 796" fill="none" xmlns="http://www.w3.org/2000/svg">
<path d="M589.853 445.808H511.668V448.334H523.861V472.328H526.384V448.334H573.876V472.328H576.398V448.334H589.853V445.808Z" fill="#3F3D56"/>
<path d="M618.857 383.927H598.68V404.132H608.033V472.217H610.556V404.132H618.857V383.927Z" fill="#3F3D56"/>
<path d="M590.007 438.251H511.822V440.777H590.007V438.251Z" fill="#3F3D56"/>
<path d="M590.007 431.936H511.822V434.462H590.007V431.936Z" fill="#3F3D56"/>
<path d="M590.007 425.622H511.822V428.148H590.007V425.622Z" fill="#3F3D56"/>
<path d="M790.359 479.608H787.837C787.837 359.834 690.535 262.392 570.936 262.392C451.337 262.392 354.036 359.834 354.036 479.608H351.514C351.514 358.442 449.946 259.866 570.936 259.866C691.927 259.866 790.359 358.442 790.359 479.608Z" fill="#3F3D56"/>
<path d="M206.182 412.962C320.053 412.962 412.364 320.518 412.364 206.481C412.364 92.4448 320.053 0 206.182 0C92.3107 0 0 92.4448 0 206.481C0 320.518 92.3107 412.962 206.182 412.962Z" fill="#DC241F"/>
<path opacity="0.2" d="M359.552 68.568C378.784 113.621 381.393 164.054 366.913 210.856C352.432 257.657 321.806 297.778 280.507 324.048C239.207 350.318 189.926 361.025 141.469 354.257C93.0126 347.489 48.5377 323.686 15.9922 287.102C27.7406 314.627 45.3242 339.265 67.5248 359.309C89.7254 379.354 116.012 394.324 144.564 403.185C173.115 412.045 203.249 414.583 232.878 410.623C262.506 406.662 290.92 396.298 316.152 380.249C341.383 364.199 362.829 342.848 379.003 317.674C395.177 292.501 405.692 264.106 409.82 234.459C413.949 204.811 411.591 174.619 402.911 145.975C394.231 117.33 379.437 90.9179 359.552 68.568Z" fill="black"/>
<path d="M206.748 206.481H207.314L217.51 791.89H195.986L206.748 206.481Z" fill="#3F3D56"/>
<path d="M244.291 525.35L239.541 516.315L205.459 534.285L210.208 543.32L244.291 525.35Z" fill="#3F3D56"/>
<path d="M965.122 461.202C1057.29 461.202 1132 386.38 1132 294.082C1132 201.784 1057.29 126.962 965.122 126.962C872.958 126.962 798.244 201.784 798.244 294.082C798.244 386.38 872.958 461.202 965.122 461.202Z" fill="#DC241F"/>
<path opacity="0.2" d="M1089.26 182.459C1104.82 218.924 1106.93 259.743 1095.21 297.623C1083.49 335.503 1058.71 367.975 1025.28 389.237C991.853 410.499 951.967 419.166 912.747 413.688C873.528 408.21 837.531 388.944 811.189 359.334C820.698 381.612 834.93 401.554 852.898 417.777C870.867 434 892.143 446.117 915.252 453.288C938.36 460.46 962.75 462.514 986.73 459.308C1010.71 456.103 1033.71 447.715 1054.13 434.725C1074.55 421.735 1091.91 404.454 1105 384.079C1118.09 363.704 1126.6 340.722 1129.94 316.726C1133.28 292.731 1131.38 268.294 1124.35 245.11C1117.33 221.926 1105.35 200.549 1089.26 182.459Z" fill="black"/>
<path d="M965.581 294.082H966.04L974.292 767.894H956.871L965.581 294.082Z" fill="#3F3D56"/>
<path d="M995.965 552.165L992.121 544.852L964.536 559.397L968.38 566.709L995.965 552.165Z" fill="#3F3D56"/>
<path d="M472.683 437.991C487.191 437.991 498.953 426.213 498.953 411.683C498.953 397.153 487.191 385.374 472.683 385.374C458.174 385.374 446.412 397.153 446.412 411.683C446.412 426.213 458.174 437.991 472.683 437.991Z" fill="#DC241F"/>
<path opacity="0.2" d="M492.223 394.111C494.674 399.851 495.006 406.277 493.161 412.24C491.316 418.203 487.414 423.315 482.152 426.662C476.89 430.01 470.611 431.374 464.437 430.512C458.263 429.649 452.596 426.616 448.449 421.955C449.946 425.462 452.186 428.601 455.015 431.155C457.844 433.709 461.193 435.617 464.831 436.746C468.469 437.875 472.308 438.198 476.083 437.693C479.858 437.189 483.479 435.868 486.694 433.823C489.909 431.778 492.641 429.058 494.702 425.85C496.763 422.643 498.102 419.025 498.628 415.248C499.154 411.47 498.854 407.623 497.748 403.973C496.642 400.324 494.757 396.958 492.223 394.111Z" fill="black"/>
<path d="M472.754 411.683H472.825L474.125 486.272H471.383L472.754 411.683Z" fill="#3F3D56"/>
<path d="M477.539 452.311L476.934 451.16L472.591 453.45L473.196 454.601L477.539 452.311Z" fill="#3F3D56"/>
<path d="M715.434 394.241C752.578 394.241 782.689 364.087 782.689 326.889C782.689 289.692 752.578 259.537 715.434 259.537C678.291 259.537 648.18 289.692 648.18 326.889C648.18 364.087 678.291 394.241 715.434 394.241Z" fill="#DC241F"/>
<path opacity="0.2" d="M765.462 281.903C771.736 296.599 772.587 313.05 767.863 328.316C763.14 343.583 753.15 356.67 739.679 365.239C726.207 373.808 710.132 377.3 694.326 375.093C678.52 372.885 664.013 365.12 653.396 353.187C657.229 362.165 662.964 370.202 670.206 376.741C677.448 383.279 686.022 388.162 695.335 391.052C704.649 393.943 714.478 394.77 724.142 393.479C733.807 392.187 743.075 388.806 751.306 383.571C759.536 378.336 766.532 371.371 771.807 363.16C777.083 354.948 780.513 345.686 781.86 336.015C783.206 326.345 782.437 316.496 779.606 307.153C776.775 297.809 771.949 289.194 765.462 281.903Z" fill="black"/>
<path d="M715.619 326.889H715.803L719.129 517.844H712.107L715.619 326.889Z" fill="#3F3D56"/>
<path d="M727.866 430.901L726.316 427.954L715.199 433.816L716.748 436.763L727.866 430.901Z" fill="#3F3D56"/>
<path d="M252.402 762.747C252.402 762.747 253.273 744.473 271.125 746.597L252.402 762.747Z" fill="#3F3D56"/>
<path d="M247.359 745.357C252.293 745.357 256.294 741.351 256.294 736.409C256.294 731.468 252.293 727.462 247.359 727.462C242.424 727.462 238.424 731.468 238.424 736.409C238.424 741.351 242.424 745.357 247.359 745.357Z" fill="#DC241F"/>
<path d="M248.426 751.477H245.904V769.157H248.426V751.477Z" fill="#3F3D56"/>
<path d="M315.455 721.072C315.455 721.072 316.326 702.798 334.178 704.922L315.455 721.072Z" fill="#3F3D56"/>
<path d="M310.411 703.682C315.346 703.682 319.346 699.676 319.346 694.734C319.346 689.793 315.346 685.786 310.411 685.786C305.477 685.786 301.477 689.793 301.477 694.734C301.477 699.676 305.477 703.682 310.411 703.682Z" fill="#DC241F"/>
<path d="M311.479 709.802H308.957V727.482H311.479V709.802Z" fill="#3F3D56"/>
<path d="M505.52 579.685C505.52 579.685 506.211 565.172 520.39 566.859L505.52 579.685Z" fill="#3F3D56"/>
<path d="M501.514 565.873C505.434 565.873 508.611 562.692 508.611 558.767C508.611 554.842 505.434 551.66 501.514 551.66C497.595 551.66 494.418 554.842 494.418 558.767C494.418 562.692 497.595 565.873 501.514 565.873Z" fill="#DC241F"/>
<path d="M502.363 570.734H500.359V584.777H502.363V570.734Z" fill="#3F3D56"/>
<path d="M782.951 534.221C782.951 534.221 783.643 519.708 797.822 521.395L782.951 534.221Z" fill="#3F3D56"/>
<path d="M778.944 520.41C782.863 520.41 786.041 517.228 786.041 513.303C786.041 509.378 782.863 506.196 778.944 506.196C775.025 506.196 771.848 509.378 771.848 513.303C771.848 517.228 775.025 520.41 778.944 520.41Z" fill="#DC241F"/>
<path d="M779.792 525.27H777.789V539.313H779.792V525.27Z" fill="#3F3D56"/>
<path d="M518.131 617.572C518.131 617.572 518.822 603.058 533.002 604.745L518.131 617.572Z" fill="#3F3D56"/>
<path d="M514.124 603.76C518.043 603.76 521.22 600.578 521.22 596.653C521.22 592.728 518.043 589.546 514.124 589.546C510.205 589.546 507.027 592.728 507.027 596.653C507.027 600.578 510.205 603.76 514.124 603.76Z" fill="#DC241F"/>
<path d="M514.972 608.621H512.969V622.663H514.972V608.621Z" fill="#3F3D56"/>
<path d="M487.865 645.355C487.865 645.355 488.557 630.841 502.736 632.528L487.865 645.355Z" fill="#3F3D56"/>
<path d="M483.858 631.543C487.778 631.543 490.955 628.362 490.955 624.437C490.955 620.512 487.778 617.33 483.858 617.33C479.939 617.33 476.762 620.512 476.762 624.437C476.762 628.362 479.939 631.543 483.858 631.543Z" fill="#DC241F"/>
<path d="M484.708 636.404H482.705V650.447H484.708V636.404Z" fill="#3F3D56"/>
<path d="M825.826 558.216C825.826 558.216 826.518 543.702 840.697 545.389L825.826 558.216Z" fill="#3F3D56"/>
<path d="M821.821 544.405C825.74 544.405 828.918 541.223 828.918 537.298C828.918 533.373 825.74 530.191 821.821 530.191C817.902 530.191 814.725 533.373 814.725 537.298C814.725 541.223 817.902 544.405 821.821 544.405Z" fill="#DC241F"/>
<path d="M822.669 549.265H820.666V563.308H822.669V549.265Z" fill="#3F3D56"/>
<path d="M417.246 589.788C417.246 589.788 417.938 575.274 432.117 576.961L417.246 589.788Z" fill="#3F3D56"/>
<path d="M413.239 575.977C417.158 575.977 420.336 572.795 420.336 568.87C420.336 564.945 417.158 561.763 413.239 561.763C409.32 561.763 406.143 564.945 406.143 568.87C406.143 572.795 409.32 575.977 413.239 575.977Z" fill="#DC241F"/>
<path d="M414.089 580.837H412.086V594.88H414.089V580.837Z" fill="#3F3D56"/>
<path d="M745.119 517.804C745.119 517.804 745.811 503.29 759.99 504.977L745.119 517.804Z" fill="#3F3D56"/>
<path d="M741.112 503.992C745.031 503.992 748.209 500.81 748.209 496.886C748.209 492.961 745.031 489.779 741.112 489.779C737.193 489.779 734.016 492.961 734.016 496.886C734.016 500.81 737.193 503.992 741.112 503.992Z" fill="#DC241F"/>
<path d="M741.962 508.853H739.959V522.896H741.962V508.853Z" fill="#3F3D56"/>
<path d="M142.691 766.536C142.691 766.536 143.562 748.262 161.414 750.386L142.691 766.536Z" fill="#3F3D56"/>
<path d="M137.648 749.146C142.582 749.146 146.583 745.14 146.583 740.198C146.583 735.256 142.582 731.25 137.648 731.25C132.713 731.25 128.713 735.256 128.713 740.198C128.713 745.14 132.713 749.146 137.648 749.146Z" fill="#DC241F"/>
<path d="M138.715 755.266H136.193V772.946H138.715V755.266Z" fill="#3F3D56"/>
<path d="M938.414 718.546C938.414 718.546 939.285 700.272 957.137 702.396L938.414 718.546Z" fill="#3F3D56"/>
<path d="M933.37 701.156C938.305 701.156 942.305 697.15 942.305 692.209C942.305 687.267 938.305 683.261 933.37 683.261C928.436 683.261 924.436 687.267 924.436 692.209C924.436 697.15 928.436 701.156 933.37 701.156Z" fill="#DC241F"/>
<path d="M934.438 707.276H931.916V724.957H934.438V707.276Z" fill="#3F3D56"/>
<path d="M928.326 782.953C928.326 782.953 929.197 764.679 947.049 766.804L928.326 782.953Z" fill="#3F3D56"/>
<path d="M923.283 765.563C928.217 765.563 932.217 761.557 932.217 756.616C932.217 751.674 928.217 747.668 923.283 747.668C918.348 747.668 914.348 751.674 914.348 756.616C914.348 761.557 918.348 765.563 923.283 765.563Z" fill="#DC241F"/>
<path d="M924.35 771.683H921.828V789.364H924.35V771.683Z" fill="#3F3D56"/>
<path d="M157.209 796.591C157.209 796.591 554.44 691.772 550.657 584.427C543.721 554.749 495.801 547.172 495.801 547.172C495.801 547.172 382.306 532.017 444.098 495.394C505.889 458.77 674.87 467.61 674.87 467.61C674.87 467.61 500.845 495.394 577.769 510.548C639.561 514.337 719.007 530.754 719.007 530.754C719.007 530.754 880.421 564.852 903.12 648.202C925.819 731.553 906.903 795.96 906.903 795.96L157.209 796.591Z" fill="#E6E6E6"/>
<path d="M589.861 797L588.373 794.918C590.475 793.413 592.544 791.917 594.583 790.429L596.088 792.498C594.041 793.989 591.965 795.49 589.861 797Z" fill="white"/>
<path d="M608.403 783.341L606.861 781.301C610.99 778.169 615.057 775.019 618.949 771.937L620.534 773.944C616.628 777.037 612.546 780.199 608.403 783.341ZM632.456 764.274L630.824 762.304C634.821 758.979 638.729 755.637 642.441 752.373L644.128 754.295C640.399 757.576 636.472 760.934 632.456 764.274ZM655.498 743.966L653.749 742.099C657.564 738.516 661.241 734.93 664.68 731.437L666.5 733.234C663.038 736.749 659.336 740.361 655.498 743.966ZM677.041 722.032L675.139 720.322C678.643 716.413 681.957 712.498 684.99 708.686L686.989 710.281C683.925 714.131 680.579 718.085 677.041 722.032ZM696.148 697.887L694.037 696.445C697.008 692.085 699.689 687.732 702.004 683.508L704.245 684.74C701.89 689.036 699.166 693.46 696.148 697.887ZM710.844 670.74L708.465 669.805C710.318 665.121 711.77 660.288 712.804 655.357L715.307 655.872C714.244 660.946 712.751 665.92 710.844 670.74V670.74ZM714.255 640.416C714.18 635.441 713.489 630.495 712.2 625.691L714.668 625.023C716.012 630.032 716.731 635.188 716.811 640.374L714.255 640.416ZM706.61 611.875C704.182 607.486 701.334 603.344 698.104 599.508L700.063 597.866C703.4 601.83 706.344 606.11 708.851 610.646L706.61 611.875ZM687.544 588.707C683.746 585.357 679.768 582.218 675.627 579.304L677.102 577.215C681.32 580.182 685.371 583.38 689.239 586.793L687.544 588.707ZM662.82 571.068C658.639 568.607 654.13 566.151 649.419 563.769L650.569 561.485C655.33 563.89 659.887 566.372 664.115 568.861L662.82 571.068ZM635.606 557.228C631.157 555.249 626.419 553.257 621.522 551.306L622.468 548.929C627.395 550.891 632.164 552.897 636.644 554.889L635.606 557.228ZM607.193 545.866C602.639 544.213 597.771 542.515 592.726 540.822L593.537 538.395C598.602 540.096 603.49 541.799 608.064 543.459L607.193 545.866ZM578.145 536.081C573.692 534.674 568.897 533.193 563.487 531.552L564.228 529.102C569.647 530.746 574.452 532.23 578.914 533.639L578.145 536.081ZM548.782 527.132C543.612 525.583 538.683 524.104 534.068 522.68L534.82 520.233C539.429 521.657 544.351 523.134 549.514 524.68L548.782 527.132ZM519.412 517.934C514.496 516.309 509.688 514.371 505.018 512.131L506.168 509.844C510.735 512.034 515.439 513.928 520.248 515.514L519.412 517.934ZM500.113 501.157L498.291 499.362C500.621 496.991 505.229 494.672 512.38 492.27L513.192 494.697C506.526 496.935 502.125 499.11 500.113 501.157L500.113 501.157ZM527.812 490.528L527.195 488.043C531.615 486.941 536.65 485.788 542.161 484.615L542.691 487.12C537.21 488.285 532.204 489.432 527.812 490.528V490.528ZM557.675 484.106L557.196 481.591C561.905 480.69 566.976 479.757 572.27 478.817L572.717 481.336C567.433 482.275 562.373 483.206 557.675 484.106V484.106ZM587.793 478.737L587.371 476.212C592.187 475.404 597.226 474.577 602.489 473.732L602.894 476.259C597.635 477.104 592.601 477.93 587.793 478.737Z" fill="white"/>
<path d="M618.302 473.829L617.91 471.3C620.395 470.915 622.923 470.526 625.495 470.134L625.879 472.663C623.309 473.056 620.783 473.444 618.302 473.829Z" fill="white"/>
<path d="M674.865 213.861L686.473 204.563C677.455 203.566 673.75 208.492 672.233 212.391C665.187 209.461 657.518 213.3 657.518 213.3L680.745 221.745C679.573 218.611 677.533 215.876 674.865 213.861Z" fill="#3F3D56"/>
<path d="M459.224 285.845L470.833 276.547C461.814 275.551 458.109 280.476 456.592 284.375C449.547 281.445 441.877 285.285 441.877 285.285L465.104 293.729C463.932 290.595 461.893 287.86 459.224 285.845Z" fill="#3F3D56"/>
<path d="M515.972 136.825L527.581 127.527C518.562 126.531 514.857 131.456 513.34 135.355C506.295 132.425 498.625 136.265 498.625 136.265L521.852 144.709C520.68 141.575 518.641 138.84 515.972 136.825Z" fill="#3F3D56"/>
<path d="M642.172 550.835C642.172 550.835 632.117 550.835 630.999 556.988C629.882 563.142 628.206 630.273 629.324 638.664C630.441 647.055 630.441 645.377 630.441 645.377C630.441 645.377 628.213 661.323 633.237 662.021C638.261 662.719 638.261 643.699 638.261 643.699L642.172 575.449V550.835Z" fill="#9E616A"/>
<path d="M685.742 550.835C685.742 550.835 695.797 550.835 696.914 556.988C698.032 563.142 699.707 630.273 698.59 638.664C697.473 647.055 697.473 645.377 697.473 645.377C697.473 645.377 699.7 661.323 694.676 662.021C689.652 662.719 689.653 643.699 689.653 643.699L685.742 575.449V550.835Z" fill="#9E616A"/>
<path d="M640.495 784.673H636.026C634.705 784.673 633.398 784.934 632.178 785.44C630.958 785.946 629.85 786.687 628.916 787.622C627.982 788.557 627.241 789.667 626.736 790.889C626.231 792.111 625.971 793.42 625.971 794.743V794.743H653.343V781.876H640.495V784.673Z" fill="#2F2E41"/>
<path d="M683.508 784.673H687.977C690.644 784.673 693.201 785.734 695.087 787.622C696.973 789.511 698.032 792.072 698.032 794.743V794.743H670.66V781.876H683.508V784.673Z" fill="#2F2E41"/>
<path d="M659.487 537.968C667.508 537.968 674.011 531.456 674.011 523.423C674.011 515.39 667.508 508.878 659.487 508.878C651.465 508.878 644.963 515.39 644.963 523.423C644.963 531.456 651.465 537.968 659.487 537.968Z" fill="#9E616A"/>
<path d="M656.136 531.255C656.136 531.255 654.46 549.716 652.226 551.394C649.991 553.072 675.687 550.275 675.687 550.275C675.687 550.275 666.75 536.849 668.425 532.374C670.101 527.898 656.136 531.255 656.136 531.255Z" fill="#9E616A"/>
<path d="M689.095 550.835C689.095 550.835 658.371 537.968 638.261 550.835C638.261 550.835 633.234 563.701 637.144 570.974C641.054 578.246 647.199 595.588 641.054 607.336C634.909 619.084 641.613 614.049 641.613 614.049C641.613 614.049 633.792 645.377 632.675 669.992C631.558 694.606 636.027 782.995 639.378 783.554C642.73 784.114 653.344 785.232 654.461 783.554C655.578 781.876 663.399 664.957 663.399 664.957C663.399 664.957 666.75 784.673 670.102 784.673C673.454 784.673 682.391 784.673 684.067 781.876C685.743 779.079 699.708 671.11 694.681 648.733C689.653 626.357 686.302 615.168 686.302 615.168C686.302 615.168 692.446 611.252 690.771 609.014C689.095 606.777 680.716 582.722 684.626 578.806C688.536 574.89 689.095 550.835 689.095 550.835Z" fill="#2F2E41"/>
<path d="M668.704 538.152C681.661 538.152 692.166 527.633 692.166 514.657C692.166 501.68 681.661 491.161 668.704 491.161C655.746 491.161 645.242 501.68 645.242 514.657C645.242 527.633 655.746 538.152 668.704 538.152Z" fill="#2F2E41"/>
<path d="M683.356 502.894C679.402 501.964 675.958 499.545 673.738 496.139C671.518 492.734 670.692 488.603 671.432 484.604C671.363 484.844 671.299 485.087 671.241 485.333C670.285 489.419 670.988 493.717 673.196 497.283C675.404 500.85 678.935 503.392 683.014 504.352C687.093 505.312 691.386 504.611 694.948 502.402C698.511 500.193 701.052 496.658 702.013 492.574C702.071 492.328 702.121 492.082 702.166 491.836C701.05 495.747 698.474 499.077 694.971 501.136C691.469 503.195 687.31 503.825 683.356 502.894Z" fill="#2F2E41"/>
<path d="M684.309 505.956C690.65 505.956 695.791 500.808 695.791 494.458C695.791 488.108 690.65 482.96 684.309 482.96C677.968 482.96 672.828 488.108 672.828 494.458C672.828 500.808 677.968 505.956 684.309 505.956Z" fill="#2F2E41"/>
</svg>
